# xmcd
#
# Track frame offsets:
#	150
#	27019
#	51128
#	86101
#	111714
#	134879
#	157341
#	181228
#	239314
#	274382
#
# Disc length: 3868 seconds
#
# Revision: 0
# Processed by: cddbd v1.5.2PL0 Copyright (c) Steve Scherf et al.
# Submitted via: dBpowerAMP V4.0
#
DISCID=990f1a0a
DTITLE=Riders - Riders en plan Clapton
DYEAR=2002
DGENRE=Blues
TTITLE0=Badge
TTITLE1=Worried Life Blues
TTITLE2=I Shoot The Sheriff
TTITLE3=White Room
TTITLE4=Hoochie Coochie Man
TTITLE5=Blues Power
TTITLE6=Cocaine
TTITLE7=Old Love
TTITLE8=Sunshine Of Your Love
TTITLE9=Nobody Knows You When You're Down and Out
EXTD=Riders en plan Clapton
EXTT0=
EXTT1=
EXTT2=
EXTT3=
EXTT4=
EXTT5=
EXTT6=
EXTT7=
EXTT8=
EXTT9=
PLAYORDER=
